<svg width="160" height="168" viewBox="0 0 160 168" fill="none" xmlns="http://www.w3.org/2000/svg">
<g clip-path="url(#clip0_4477_33334)">
<path d="M116.744 2.57666C103.371 -0.746013 49.4437 -5.2581 13.0452 29.795C-16.685 58.4201 12.9966 67.099 18.1379 70.5956C32.6768 80.4818 7.13905 96.1743 2.4121 117.819C-2.30206 139.313 28.9551 161.218 75.291 140.195C162.752 100.52 165.973 14.8161 116.744 2.57666Z" fill="url(#paint0_linear_4477_33334)"/>
<path d="M116.596 35.8343C113.954 31.9092 110.531 28.5715 106.541 26.03C98.5704 20.9373 89.0295 19.3386 79.6831 21.5281C70.3543 23.7528 62.254 29.5135 57.0908 37.5953C51.9275 45.6772 50.1047 55.4484 52.0069 64.8483C52.3222 66.3893 52.7392 67.9077 53.2551 69.3936C55.0282 72.0188 57.1561 74.386 59.5782 76.4277L58.133 78.6915C59.7302 80.8667 61.5787 82.8457 63.6401 84.5874L58.7392 92.261L56.1814 96.2743C55.7393 96.109 55.2689 96.0331 54.7973 96.0511C54.3257 96.0691 53.8623 96.1806 53.4342 96.3792C52.8108 96.662 52.2837 97.1207 51.9174 97.699L31.283 129.984L30.6947 130.918C30.1849 131.717 30.0129 132.686 30.2162 133.612C30.4195 134.538 30.9816 135.345 31.7793 135.857L38.7495 140.305C39.1444 140.559 39.5855 140.732 40.0475 140.815C40.5095 140.898 40.9833 140.889 41.4417 140.788C41.9001 140.687 42.3342 140.497 42.7189 140.228C43.1036 139.959 43.4314 139.617 43.6836 139.221L64.9139 105.997C65.399 105.232 65.576 104.311 65.4094 103.421C65.2428 102.53 64.745 101.736 64.0161 101.198L71.4519 89.565C76.0342 91.6915 81.026 92.7906 86.0778 92.7853C92.2216 92.7594 98.2601 91.1874 103.637 88.2143C109.013 85.2413 113.555 80.9627 116.844 75.7729C124.94 63.0833 124.359 47.3473 116.596 35.8343ZM60.7932 34.407C63.2277 30.5633 66.5904 27.3941 70.5714 25.1912C74.5525 22.9884 79.0238 21.8228 83.5736 21.8018C89.1213 21.7917 94.5221 23.5839 98.9632 26.9086C103.404 30.2333 106.645 34.9106 108.198 40.2364C110.483 43.3123 112.062 46.8536 112.823 50.6086C114.231 57.5724 112.88 64.8108 109.055 70.7979C105.23 76.785 99.2296 81.053 92.319 82.7022C88.4304 83.6414 84.3761 83.6594 80.4793 82.7548C76.5825 81.8502 72.9509 80.048 69.8736 77.4918C67.8646 75.8253 66.1245 73.8591 64.7144 71.6624C63.3783 69.5829 62.3447 67.3238 61.645 64.9531C55.2503 56.374 54.5571 44.1679 60.7932 34.407Z" fill="url(#paint1_linear_4477_33334)"/>
<path d="M71.017 75.6882L69.8659 77.4915L67.3618 81.4076L59.9337 93.0331L56.5292 98.3586L53.4265 96.3788L48.7354 93.3784L52.099 88.1143L58.1227 78.6911L59.5679 76.4249L63.2231 70.708L64.7144 71.6595V71.6621L71.017 75.6882Z" fill="#CDEAFF"/>
<path d="M71.017 75.6882L69.8659 77.4915L67.3618 81.4076L59.9337 93.0331L56.5292 98.3586L53.4265 96.3788L48.7354 93.3784L52.099 88.1143L58.1227 78.6911L59.5679 76.4249L63.2231 70.708L64.7144 71.6595V71.6621L71.017 75.6882Z" fill="url(#paint2_linear_4477_33334)"/>
<path d="M57.253 58.8677C55.4467 54.4267 54.7872 49.6025 55.3352 44.8396C55.8832 40.0767 57.6212 35.5283 60.389 31.6136C63.7777 26.8529 68.6205 23.3211 74.1891 21.5493C79.7577 19.7776 85.7509 19.8616 91.2676 21.7888C92.0222 22.0446 92.764 22.3413 93.5032 22.6662C100.337 25.7227 105.717 31.3127 108.51 38.2582C111.302 45.2037 111.29 52.9622 108.474 59.8986C107.112 63.2795 105.08 66.3504 102.502 68.9274C99.9235 71.5043 96.8516 73.5342 93.4699 74.8954C90.4477 76.1149 87.2284 76.7728 83.97 76.8368C72.6923 77.0593 61.806 70.1863 57.253 58.8677Z" fill="url(#paint3_linear_4477_33334)"/>
<path d="M116.595 35.8339C114.052 28.4208 109.072 22.0879 102.468 17.8674C94.5005 12.7747 84.9571 11.176 75.6107 13.3655C66.2808 15.5897 58.1791 21.3497 53.0137 29.4313C47.8482 37.5128 46.0226 47.2843 47.9217 56.6857C48.8493 61.2284 50.6577 65.5455 53.2446 69.3932C56.4233 74.0914 60.707 77.9371 65.7196 80.5926C70.7321 83.2481 76.3201 84.632 81.9925 84.6227C87.8325 84.5746 93.5776 83.1404 98.755 80.438C103.932 77.7355 108.394 73.8423 111.773 69.0786C115.151 64.3148 117.35 58.8169 118.189 53.0372C119.027 47.2575 118.481 41.3613 116.595 35.8339ZM60.7929 34.4066C63.2274 30.5629 66.5901 27.3937 70.5711 25.1908C74.5522 22.988 79.0235 21.8224 83.5733 21.8014C89.121 21.7913 94.5218 23.5835 98.9629 26.9082C103.404 30.2329 106.645 34.9101 108.198 40.236C108.413 40.9607 108.598 41.6974 108.753 42.446C110.158 49.4092 108.806 56.646 104.98 62.6317C101.155 68.6174 95.1559 72.8847 88.2465 74.5345C84.8829 75.3449 81.3903 75.4682 77.9778 74.8968C74.5654 74.3254 71.3034 73.0712 68.3872 71.2093C65.778 69.5499 63.4932 67.4289 61.6447 64.9501C55.25 56.3736 54.5568 44.1674 60.7929 34.4066Z" fill="#1D8ADB"/>
<path style="mix-blend-mode:color-burn" opacity="0.37" d="M116.595 35.8339C114.052 28.4208 109.072 22.0879 102.468 17.8674C94.5005 12.7747 84.9571 11.176 75.6107 13.3655C66.2808 15.5897 58.1791 21.3497 53.0137 29.4313C47.8482 37.5128 46.0226 47.2843 47.9217 56.6857C48.8493 61.2284 50.6577 65.5455 53.2446 69.3932C56.4233 74.0914 60.707 77.9371 65.7196 80.5926C70.7321 83.2481 76.3201 84.632 81.9925 84.6227C87.8325 84.5746 93.5776 83.1404 98.755 80.438C103.932 77.7355 108.394 73.8423 111.773 69.0786C115.151 64.3148 117.35 58.8169 118.189 53.0372C119.027 47.2575 118.481 41.3613 116.595 35.8339ZM60.7929 34.4066C63.2274 30.5629 66.5901 27.3937 70.5711 25.1908C74.5522 22.988 79.0235 21.8224 83.5733 21.8014C89.121 21.7913 94.5218 23.5835 98.9629 26.9082C103.404 30.2329 106.645 34.9101 108.198 40.236C108.413 40.9607 108.598 41.6974 108.753 42.446C110.158 49.4092 108.806 56.646 104.98 62.6317C101.155 68.6174 95.1559 72.8847 88.2465 74.5345C84.8829 75.3449 81.3903 75.4682 77.9778 74.8968C74.5654 74.3254 71.3034 73.0712 68.3872 71.2093C65.778 69.5499 63.4932 67.4289 61.6447 64.9501C55.25 56.3736 54.5568 44.1674 60.7929 34.4066Z" fill="url(#paint4_radial_4477_33334)"/>
<path d="M34.6514 132.138L27.7093 127.703C27.3113 127.45 26.9671 127.121 26.6966 126.734C26.4262 126.348 26.2347 125.912 26.1332 125.451C26.0317 124.991 26.0222 124.514 26.1053 124.05C26.1883 123.586 26.3623 123.143 26.6171 122.746L47.8321 89.547C48.0851 89.1493 48.4142 88.8055 48.8004 88.5352C49.1866 88.265 49.6223 88.0736 50.0826 87.9721C50.5429 87.8707 51.0188 87.8611 51.4828 87.9439C51.9468 88.0267 52.3899 88.2004 52.7867 88.4548L59.7313 92.8927C60.1294 93.1457 60.4735 93.4749 60.744 93.8613C61.0145 94.2477 61.206 94.6837 61.3075 95.1444C61.409 95.605 61.4184 96.0811 61.3354 96.5454C61.2523 97.0097 61.0784 97.453 60.8235 97.8499L39.6086 131.046C39.3555 131.444 39.0264 131.788 38.64 132.059C38.2536 132.329 37.8175 132.521 37.3569 132.622C36.8963 132.724 36.4202 132.733 35.9559 132.65C35.4916 132.567 35.0483 132.393 34.6514 132.138Z" fill="#1D8ADB"/>
<path style="mix-blend-mode:color-burn" opacity="0.37" d="M34.6514 132.138L27.7093 127.703C27.3113 127.45 26.9671 127.121 26.6966 126.734C26.4262 126.348 26.2347 125.912 26.1332 125.451C26.0317 124.991 26.0222 124.514 26.1053 124.05C26.1883 123.586 26.3623 123.143 26.6171 122.746L47.8321 89.547C48.0851 89.1493 48.4142 88.8055 48.8004 88.5352C49.1866 88.265 49.6223 88.0736 50.0826 87.9721C50.5429 87.8707 51.0188 87.8611 51.4828 87.9439C51.9468 88.0267 52.3899 88.2004 52.7867 88.4548L59.7313 92.8927C60.1294 93.1457 60.4735 93.4749 60.744 93.8613C61.0145 94.2477 61.206 94.6837 61.3075 95.1444C61.409 95.605 61.4184 96.0811 61.3354 96.5454C61.2523 97.0097 61.0784 97.453 60.8235 97.8499L39.6086 131.046C39.3555 131.444 39.0264 131.788 38.64 132.059C38.2536 132.329 37.8175 132.521 37.3569 132.622C36.8963 132.724 36.4202 132.733 35.9559 132.65C35.4916 132.567 35.0483 132.393 34.6514 132.138Z" fill="url(#paint5_linear_4477_33334)"/>
<path d="M98.4575 33.5805C100.62 35.7376 102.292 38.3355 103.359 41.1972C104.426 44.0588 104.864 47.117 104.642 50.1632C102.296 46.3035 98.7825 43.2898 94.6108 41.5571C90.4391 39.8245 85.8247 39.4626 81.4339 40.5239C77.0431 41.5851 73.1033 44.0145 70.1835 47.4612C67.2637 50.9079 65.5149 55.1935 65.1898 59.6989C62.4898 55.2472 61.5136 49.9607 62.4458 44.8383C63.378 39.7158 66.1539 35.1121 70.2491 31.897C74.3444 28.6818 79.4754 27.0778 84.6727 27.388C89.87 27.6982 94.7738 29.9011 98.4575 33.5805Z" fill="url(#paint6_linear_4477_33334)"/>
</g>
<defs>
<linearGradient id="paint0_linear_4477_33334" x1="184.26" y1="35.8016" x2="-59.7678" y2="112.898" gradientUnits="userSpaceOnUse">
<stop stop-color="#CDEAFF" stop-opacity="0"/>
<stop offset="0.09" stop-color="#CDEAFF" stop-opacity="0.05"/>
<stop offset="0.24" stop-color="#CDEAFF" stop-opacity="0.17"/>
<stop offset="0.45" stop-color="#CDEAFF" stop-opacity="0.37"/>
<stop offset="0.7" stop-color="#CDEAFF" stop-opacity="0.64"/>
<stop offset="0.9999" stop-color="#BBC6FE" stop-opacity="0.98"/>
<stop offset="1" stop-color="#CDEAFF"/>
</linearGradient>
<linearGradient id="paint1_linear_4477_33334" x1="34.9894" y1="136.331" x2="105.796" y2="27.8103" gradientUnits="userSpaceOnUse">
<stop stop-color="white" stop-opacity="0"/>
<stop offset="0.26" stop-color="white" stop-opacity="0.28"/>
<stop offset="0.85" stop-color="white" stop-opacity="0.99"/>
</linearGradient>
<linearGradient id="paint2_linear_4477_33334" x1="55.9179" y1="91.4217" x2="69.5232" y2="67.7434" gradientUnits="userSpaceOnUse">
<stop stop-color="#CDEAFF"/>
<stop offset="0.24" stop-color="#CDEAFF"/>
<stop offset="0.74" stop-color="#CDEAFF"/>
<stop offset="1" stop-color="#CDEAFF"/>
</linearGradient>
<linearGradient id="paint3_linear_4477_33334" x1="81.9534" y1="32.4572" x2="85.2652" y2="88.979" gradientUnits="userSpaceOnUse">
<stop stop-color="#CDEAFF" stop-opacity="0"/>
<stop offset="0.09" stop-color="#CDEAFF" stop-opacity="0.05"/>
<stop offset="0.24" stop-color="#CDEAFF" stop-opacity="0.17"/>
<stop offset="0.45" stop-color="#CDEAFF" stop-opacity="0.37"/>
<stop offset="0.7" stop-color="#CDEAFF" stop-opacity="0.64"/>
<stop offset="0.9999" stop-color="#CDEAFF" stop-opacity="0.98"/>
<stop offset="1" stop-color="#CDEAFF"/>
</linearGradient>
<radialGradient id="paint4_radial_4477_33334" cx="0" cy="0" r="1" gradientUnits="userSpaceOnUse" gradientTransform="translate(82.7284 48.4309) scale(47.512 47.512)">
<stop stop-color="white"/>
<stop offset="0.37" stop-color="#FDFDFD"/>
<stop offset="0.51" stop-color="#F6F6F6"/>
<stop offset="0.6" stop-color="#EBEBEB"/>
<stop offset="0.68" stop-color="#DADADA"/>
<stop offset="0.75" stop-color="#C4C4C4"/>
<stop offset="0.8" stop-color="#A8A8A8"/>
<stop offset="0.86" stop-color="#888888"/>
<stop offset="0.91" stop-color="#626262"/>
<stop offset="0.95" stop-color="#373737"/>
<stop offset="0.99" stop-color="#090909"/>
<stop offset="1"/>
</radialGradient>
<linearGradient id="paint5_linear_4477_33334" x1="39.8763" y1="108.087" x2="60.6116" y2="121.456" gradientUnits="userSpaceOnUse">
<stop stop-color="white"/>
<stop offset="0.09" stop-color="#F1F1F1"/>
<stop offset="0.26" stop-color="#CECECE"/>
<stop offset="0.49" stop-color="#939393"/>
<stop offset="0.77" stop-color="#444444"/>
<stop offset="1"/>
</linearGradient>
<linearGradient id="paint6_linear_4477_33334" x1="84.9036" y1="55.233" x2="77.1805" y2="21.4757" gradientUnits="userSpaceOnUse">
<stop stop-color="white" stop-opacity="0"/>
<stop offset="0.12" stop-color="white" stop-opacity="0.01"/>
<stop offset="0.23" stop-color="white" stop-opacity="0.06"/>
<stop offset="0.33" stop-color="white" stop-opacity="0.13"/>
<stop offset="0.43" stop-color="white" stop-opacity="0.24"/>
<stop offset="0.54" stop-color="white" stop-opacity="0.37"/>
<stop offset="0.64" stop-color="white" stop-opacity="0.54"/>
<stop offset="0.74" stop-color="white" stop-opacity="0.73"/>
<stop offset="0.84" stop-color="white" stop-opacity="0.95"/>
<stop offset="0.85" stop-color="white" stop-opacity="0.99"/>
</linearGradient>
<clipPath id="clip0_4477_33334">
<rect width="160" height="167.287" fill="white" transform="translate(0 0.356445)"/>
</clipPath>
</defs>
</svg>
